HIERARCHY
ROOT newVegas:Hips
{
	OFFSET 0.000000 96.479958 0.000000
	CHANNELS 6 Xposition Yposition Zposition Xrotation Yrotation Zrotation
	JOINT newVegas:Pelvis
	{
		OFFSET 0.000000 0.000000 0.000000
		CHANNELS 3 Xrotation Yrotation Zrotation
		JOINT newVegas:LeftUpLeg
		{
			OFFSET 18.735201 -5.666702 -4.541200
			CHANNELS 3 Xrotation Yrotation Zrotation
			JOINT newVegas:LeftLeg
			{
				OFFSET -0.021200 -31.938179 0.493100
				CHANNELS 3 Xrotation Yrotation Zrotation
				JOINT newVegas:LeftFoot
				{
					OFFSET 0.021200 -31.938179 -4.336299
					CHANNELS 3 Xrotation Yrotation Zrotation
					JOINT newVegas:LeftToeBase
					{
						OFFSET 0.943001 -26.722000 15.023500
						CHANNELS 3 Xrotation Yrotation Zrotation
						End Site
						{
							OFFSET 0.000000 30.670183 0.000000
						}
					}
				}
				JOINT newVegas:Left_PantLeg
				{
					OFFSET 0.663870 -9.044666 -1.108900
					CHANNELS 3 Xrotation Yrotation Zrotation
					End Site
					{
						OFFSET 1.415995 20.635357 0.000000
					}
				}
			}
		}
		JOINT newVegas:RightUpLeg
		{
			OFFSET -18.735201 -5.666702 -4.541200
			CHANNELS 3 Xrotation Yrotation Zrotation
			JOINT newVegas:RightLeg
			{
				OFFSET 0.018946 -31.938133 0.493100
				CHANNELS 3 Xrotation Yrotation Zrotation
				JOINT newVegas:RightFoot
				{
					OFFSET -0.018946 -31.938126 -4.336299
					CHANNELS 3 Xrotation Yrotation Zrotation
					JOINT newVegas:RightToeBase
					{
						OFFSET -0.943001 -26.722004 15.023500
						CHANNELS 3 Xrotation Yrotation Zrotation
						End Site
						{
							OFFSET 0.000000 30.670187 0.000000
						}
					}
				}
				JOINT newVegas:Right_PantLeg
				{
					OFFSET -0.661674 -9.044716 -1.108900
					CHANNELS 3 Xrotation Yrotation Zrotation
					End Site
					{
						OFFSET -1.415958 20.635269 0.000000
					}
				}
			}
		}
	}
	JOINT newVegas:Spine
	{
		OFFSET 0.000000 10.199997 -0.299500
		CHANNELS 3 Xrotation Yrotation Zrotation
		JOINT newVegas:Spine1
		{
			OFFSET 0.000000 11.900002 -1.516600
			CHANNELS 3 Xrotation Yrotation Zrotation
			JOINT newVegas:Spine2
			{
				OFFSET 0.000000 13.600006 -2.842500
				CHANNELS 3 Xrotation Yrotation Zrotation
				JOINT newVegas:Neck
				{
					OFFSET 0.000000 9.624100 -2.890100
					CHANNELS 3 Xrotation Yrotation Zrotation
					JOINT newVegas:Head
					{
						OFFSET 0.000000 14.068802 -1.351900
						CHANNELS 3 Xrotation Yrotation Zrotation
						JOINT newVegas:Hair_Back
						{
							OFFSET 0.000000 3.231903 -17.524799
							CHANNELS 3 Xrotation Yrotation Zrotation
							End Site
							{
								OFFSET 0.000000 19.849884 0.000000
							}
						}
						JOINT newVegas:Hair_Front
						{
							OFFSET 0.000000 31.260406 4.573800
							CHANNELS 3 Xrotation Yrotation Zrotation
							JOINT newVegas:Hair_Front1
							{
								OFFSET 0.000000 2.284103 11.993300
								CHANNELS 3 Xrotation Yrotation Zrotation
								JOINT newVegas:Hair_Front2
								{
									OFFSET 0.000000 2.284103 11.993300
									CHANNELS 3 Xrotation Yrotation Zrotation
									End Site
									{
										OFFSET 0.000000 12.208862 0.000000
									}
								}
							}
						}
						JOINT newVegas:Jowel
						{
							OFFSET 0.000000 -7.458206 6.864100
							CHANNELS 3 Xrotation Yrotation Zrotation
							End Site
							{
								OFFSET 0.000000 19.849884 0.000000
							}
						}
					}
				}
				JOINT newVegas:LeftShoulder
				{
					OFFSET 15.263000 10.923401 -0.547700
					CHANNELS 3 Xrotation Yrotation Zrotation
					JOINT newVegas:LeftArm
					{
						OFFSET 25.438599 -2.830597 -13.032500
						CHANNELS 3 Xrotation Yrotation Zrotation
						JOINT newVegas:LeftForeArm
						{
							OFFSET 29.960503 0.000000 0.000000
							CHANNELS 3 Xrotation Yrotation Zrotation
							JOINT newVegas:LeftHand
							{
								OFFSET 27.849251 0.000000 0.000000
								CHANNELS 3 Xrotation Yrotation Zrotation
								JOINT newVegas:LeftHandThumb1
								{
									OFFSET 4.487587 -3.305161 6.305391
									CHANNELS 3 Xrotation Yrotation Zrotation
									JOINT newVegas:LeftHandThumb2
									{
										OFFSET 5.480453 -3.164139 3.164143
										CHANNELS 3 Xrotation Yrotation Zrotation
										JOINT newVegas:LeftHandThumb3
										{
											OFFSET 5.159721 -2.978973 2.978967
											CHANNELS 3 Xrotation Yrotation Zrotation
											End Site
											{
												OFFSET 2.494507 5.926697 1.738678
											}
										}
									}
								}
								JOINT newVegas:LeftHandIndex1
								{
									OFFSET 18.578728 -0.527832 5.208049
									CHANNELS 3 Xrotation Yrotation Zrotation
									JOINT newVegas:LeftHandIndex2
									{
										OFFSET 3.192009 0.000000 0.000000
										CHANNELS 3 Xrotation Yrotation Zrotation
										JOINT newVegas:LeftHandIndex3
										{
											OFFSET 3.835129 0.000000 0.000000
											CHANNELS 3 Xrotation Yrotation Zrotation
											End Site
											{
												OFFSET -0.034599 3.816971 0.371180
											}
										}
									}
								}
								JOINT newVegas:LeftHandMiddle1
								{
									OFFSET 18.476105 0.000000 0.000000
									CHANNELS 3 Xrotation Yrotation Zrotation
									JOINT newVegas:LeftHandMiddle2
									{
										OFFSET 3.324875 0.000000 0.000000
										CHANNELS 3 Xrotation Yrotation Zrotation
										JOINT newVegas:LeftHandMiddle3
										{
											OFFSET 4.596550 0.000000 0.000000
											CHANNELS 3 Xrotation Yrotation Zrotation
											End Site
											{
												OFFSET 0.057701 4.578827 0.399218
											}
										}
									}
								}
								JOINT newVegas:LeftHandRing1
								{
									OFFSET 17.732719 0.121887 -4.201567
									CHANNELS 3 Xrotation Yrotation Zrotation
									JOINT newVegas:LeftHandRing2
									{
										OFFSET 2.733170 0.000000 0.000000
										CHANNELS 3 Xrotation Yrotation Zrotation
										JOINT newVegas:LeftHandRing3
										{
											OFFSET 3.178268 0.000000 0.000000
											CHANNELS 3 Xrotation Yrotation Zrotation
											End Site
											{
												OFFSET 0.119102 3.170624 0.185394
											}
										}
									}
								}
								JOINT newVegas:LeftHandPinky1
								{
									OFFSET 15.989624 -0.606689 -7.535461
									CHANNELS 3 Xrotation Yrotation Zrotation
									JOINT newVegas:LeftHandPinky2
									{
										OFFSET 2.538986 0.000000 0.000000
										CHANNELS 3 Xrotation Yrotation Zrotation
										JOINT newVegas:LeftHandPinky3
										{
											OFFSET 2.593102 0.000000 0.000000
											CHANNELS 3 Xrotation Yrotation Zrotation
											End Site
											{
												OFFSET -0.150902 2.584198 0.152708
											}
										}
									}
								}
							}
							JOINT newVegas:Left_Sleeve
							{
								OFFSET 0.267448 -0.649796 0.577675
								CHANNELS 3 Xrotation Yrotation Zrotation
								End Site
								{
									OFFSET 0.000000 15.991241 0.000000
								}
							}
							JOINT newVegas:Left_CapeC
							{
								OFFSET 15.715958 -8.608795 -6.935905
								CHANNELS 3 Xrotation Yrotation Zrotation
								JOINT newVegas:Left_CapeC1
								{
									OFFSET 0.000000 -8.688499 0.000000
									CHANNELS 3 Xrotation Yrotation Zrotation
									End Site
									{
										OFFSET 0.000000 8.688499 0.000000
									}
								}
							}
						}
						JOINT newVegas:Left_CapeB
						{
							OFFSET 26.118385 -8.608795 -7.079235
							CHANNELS 3 Xrotation Yrotation Zrotation
							JOINT newVegas:Left_CapeB1
							{
								OFFSET 0.000000 -8.688499 0.000000
								CHANNELS 3 Xrotation Yrotation Zrotation
								End Site
								{
									OFFSET 0.000000 8.688499 0.000000
								}
							}
						}
						JOINT newVegas:Left_CapeA
						{
							OFFSET 5.115639 -8.608795 -10.395809
							CHANNELS 3 Xrotation Yrotation Zrotation
							JOINT newVegas:Left_CapeA1
							{
								OFFSET 0.000000 -8.688499 0.000000
								CHANNELS 3 Xrotation Yrotation Zrotation
								End Site
								{
									OFFSET 0.000000 8.688499 0.000000
								}
							}
						}
					}
				}
				JOINT newVegas:RightShoulder
				{
					OFFSET -15.263000 10.923401 -0.547700
					CHANNELS 3 Xrotation Yrotation Zrotation
					JOINT newVegas:RightArm
					{
						OFFSET -25.438599 -2.830597 -13.032500
						CHANNELS 3 Xrotation Yrotation Zrotation
						JOINT newVegas:RightForeArm
						{
							OFFSET -29.960503 0.000000 0.000000
							CHANNELS 3 Xrotation Yrotation Zrotation
							JOINT newVegas:RightHand
							{
								OFFSET -27.849251 0.000000 0.000000
								CHANNELS 3 Xrotation Yrotation Zrotation
								JOINT newVegas:RightHandThumb1
								{
									OFFSET -4.487587 -3.305161 6.305391
									CHANNELS 3 Xrotation Yrotation Zrotation
									JOINT newVegas:RightHandThumb2
									{
										OFFSET -5.480453 -3.164139 3.164143
										CHANNELS 3 Xrotation Yrotation Zrotation
										JOINT newVegas:RightHandThumb3
										{
											OFFSET -5.159721 -2.978973 2.978967
											CHANNELS 3 Xrotation Yrotation Zrotation
											End Site
											{
												OFFSET -2.494507 5.926697 1.738678
											}
										}
									}
								}
								JOINT newVegas:RightHandIndex1
								{
									OFFSET -18.578728 -0.527832 5.208049
									CHANNELS 3 Xrotation Yrotation Zrotation
									JOINT newVegas:RightHandIndex2
									{
										OFFSET -3.192009 0.000000 0.000000
										CHANNELS 3 Xrotation Yrotation Zrotation
										JOINT newVegas:RightHandIndex3
										{
											OFFSET -3.835129 0.000000 0.000000
											CHANNELS 3 Xrotation Yrotation Zrotation
											End Site
											{
												OFFSET 0.034599 3.816971 0.371180
											}
										}
									}
								}
								JOINT newVegas:RightHandMiddle1
								{
									OFFSET -18.476105 0.000000 0.000000
									CHANNELS 3 Xrotation Yrotation Zrotation
									JOINT newVegas:RightHandMiddle2
									{
										OFFSET -3.324875 0.000000 0.000000
										CHANNELS 3 Xrotation Yrotation Zrotation
										JOINT newVegas:RightHandMiddle3
										{
											OFFSET -4.596550 0.000000 0.000000
											CHANNELS 3 Xrotation Yrotation Zrotation
											End Site
											{
												OFFSET -0.057701 4.578827 0.399218
											}
										}
									}
								}
								JOINT newVegas:RightHandRing1
								{
									OFFSET -17.732719 0.121887 -4.201567
									CHANNELS 3 Xrotation Yrotation Zrotation
									JOINT newVegas:RightHandRing2
									{
										OFFSET -2.733170 0.000000 0.000000
										CHANNELS 3 Xrotation Yrotation Zrotation
										JOINT newVegas:RightHandRing3
										{
											OFFSET -3.178268 0.000000 0.000000
											CHANNELS 3 Xrotation Yrotation Zrotation
											End Site
											{
												OFFSET -0.119102 3.170624 0.185394
											}
										}
									}
								}
								JOINT newVegas:RightHandPinky1
								{
									OFFSET -15.989624 -0.606689 -7.535461
									CHANNELS 3 Xrotation Yrotation Zrotation
									JOINT newVegas:RightHandPinky2
									{
										OFFSET -2.538986 0.000000 0.000000
										CHANNELS 3 Xrotation Yrotation Zrotation
										JOINT newVegas:RightHandPinky3
										{
											OFFSET -2.593102 0.000000 0.000000
											CHANNELS 3 Xrotation Yrotation Zrotation
											End Site
											{
												OFFSET 0.150902 2.584198 0.152708
											}
										}
									}
								}
							}
							JOINT newVegas:Right_CapeC
							{
								OFFSET -15.715958 -8.608795 -6.935905
								CHANNELS 3 Xrotation Yrotation Zrotation
								JOINT newVegas:Right_CapeC1
								{
									OFFSET 0.000000 -8.688499 0.000000
									CHANNELS 3 Xrotation Yrotation Zrotation
									End Site
									{
										OFFSET 0.000000 8.688499 0.000000
									}
								}
							}
							JOINT newVegas:Right_Sleeve
							{
								OFFSET -0.267448 -0.649994 0.577675
								CHANNELS 3 Xrotation Yrotation Zrotation
								End Site
								{
									OFFSET 0.000000 15.991302 0.000000
								}
							}
						}
						JOINT newVegas:Right_CapeA
						{
							OFFSET -5.115540 -8.608795 -10.395824
							CHANNELS 3 Xrotation Yrotation Zrotation
							JOINT newVegas:Right_CapeA1
							{
								OFFSET 0.000000 -8.688499 0.000000
								CHANNELS 3 Xrotation Yrotation Zrotation
								End Site
								{
									OFFSET 0.000000 8.688499 0.000000
								}
							}
						}
						JOINT newVegas:Right_CapeB
						{
							OFFSET -26.118187 -8.608795 -7.079266
							CHANNELS 3 Xrotation Yrotation Zrotation
							JOINT newVegas:Right_CapeB1
							{
								OFFSET 0.000000 -8.688499 0.000000
								CHANNELS 3 Xrotation Yrotation Zrotation
								End Site
								{
									OFFSET 0.000000 8.688499 0.000000
								}
							}
						}
					}
				}
				JOINT newVegas:Left_Collar
				{
					OFFSET 18.625099 8.655502 8.828100
					CHANNELS 3 Xrotation Yrotation Zrotation
					JOINT newVegas:Left_Collar1
					{
						OFFSET 14.783401 10.540405 -1.259500
						CHANNELS 3 Xrotation Yrotation Zrotation
						End Site
						{
							OFFSET 0.000000 18.199875 0.000000
						}
					}
				}
				JOINT newVegas:Collar_Back
				{
					OFFSET 0.000000 15.630707 -20.132601
					CHANNELS 3 Xrotation Yrotation Zrotation
					End Site
					{
						OFFSET 0.000000 22.523010 0.000000
					}
				}
				JOINT newVegas:Left_Peck
				{
					OFFSET 17.239599 -5.132599 25.482599
					CHANNELS 3 Xrotation Yrotation Zrotation
					End Site
					{
						OFFSET 0.000000 22.523010 0.000000
					}
				}
				JOINT newVegas:Right_Peck
				{
					OFFSET -17.239599 -5.132202 25.482599
					CHANNELS 3 Xrotation Yrotation Zrotation
					End Site
					{
						OFFSET 0.000000 22.523010 0.000000
					}
				}
				JOINT newVegas:Right_Collar
				{
					OFFSET -18.625099 8.655792 8.828100
					CHANNELS 3 Xrotation Yrotation Zrotation
					JOINT newVegas:Right_Collar1
					{
						OFFSET -14.783401 10.539993 -1.259500
						CHANNELS 3 Xrotation Yrotation Zrotation
						End Site
						{
							OFFSET 0.000000 18.199631 0.000000
						}
					}
				}
			}
		}
		JOINT newVegas:Belly
		{
			OFFSET 0.000000 -6.540398 9.014299
			CHANNELS 3 Xrotation Yrotation Zrotation
			End Site
			{
				OFFSET 0.000000 11.566666 0.000000
			}
		}
	}
	JOINT newVegas:ElvisFacialAnim_Joint
	{
		OFFSET 1.000000 -95.330101 -8.825800
		CHANNELS 3 Xrotation Yrotation Zrotation
		End Site
		{
			OFFSET 0.000000 35.315800 0.000000
		}
	}
}
MOTION
Frames: 4
Frame Time: 0.033333
1.628705 127.320297 3.200647 -14.445042 -7.000129 -1.187962 0.000000 0.000000 0.000000 -6.422361 -4.785779 11.737264 30.722358 10.752109 -4.209161 34.905091 2.118443 -9.485987 0.000002 0.000000 0.000000 0.000001 0.000000 -0.000000 -75.919492 -0.879673 -3.104426 92.648340 -2.985604 4.277143 7.633941 0.036997 6.992201 -0.000000 0.000000 -0.000001 -0.000000 0.000001 -0.000001 33.414754 -7.706952 2.037010 -8.506936 -1.509344 0.786886 -8.473650 -1.516614 1.050238 6.040569 1.113308 -1.902063 6.040568 1.113315 -1.902062 -0.000001 0.000000 0.000000 6.040497 1.113307 -1.902060 6.040650 1.113308 -1.902064 0.000003 0.000000 -0.000001 -0.000001 0.000000 -0.000000 -2.613983 10.417070 16.346680 -27.899361 22.727470 -58.526785 -0.000069 -60.579523 -0.000068 31.508930 17.339938 35.726172 3.233573 9.125561 1.139652 1.207925 -0.209764 -1.050996 0.000004 0.000002 0.000003 1.809727 4.791121 -33.940200 0.000007 0.000003 -0.000021 -0.000003 0.000000 -0.000002 1.482317 4.544525 -27.238818 0.027809 0.619454 -5.140069 -0.000002 0.000003 -0.000001 1.817835 5.221127 -26.888776 0.026942 0.609739 -5.059292 -0.000000 0.000004 0.000001 5.323090 10.236225 -32.627325 -0.018120 -4.056683 -0.491025 0.000002 0.000000 -0.000000 -0.000001 -0.000000 -0.000000 -0.000001 -0.000000 -0.000000 -0.000002 -0.000000 -0.000000 -0.000000 0.000002 -0.000001 -0.000000 0.000001 -0.000002 -0.000000 0.000002 -0.000001 -0.000001 0.000000 -0.000002 0.076720 -1.181021 -2.927277 -8.542111 -55.042773 48.796511 -0.000180 84.330720 0.000188 22.395675 -24.103049 -31.814519 7.964567 -8.561000 7.629682 1.571678 0.187098 1.723122 0.000001 0.000003 -0.000000 2.739992 -6.627855 29.658167 0.000008 0.000009 0.000200 0.000000 -0.000000 -0.000002 1.355485 -6.464365 13.231434 0.116660 -1.270926 10.488939 0.000001 -0.000000 0.000001 0.014694 -7.503177 -0.342722 0.341168 -2.155264 17.987650 -0.000002 0.000002 0.000001 -2.472273 -9.819091 -13.902187 1.049302 -3.678088 31.835682 -0.000001 0.000001 0.000001 -0.000003 -0.000001 -0.000001 -0.000003 -0.000001 -0.000001 -0.000003 -0.000000 -0.000001 0.000001 0.000000 -0.000005 0.000001 0.000001 -0.000003 0.000001 0.000000 -0.000005 0.000002 0.000001 -0.000002 0.000000 0.000000 -0.000000 0.000000 0.000000 -0.000000 0.000000 0.000000 -0.000000 0.000000 0.000000 -0.000000 0.000000 0.000000 -0.000000 0.000000 0.000000 -0.000000 0.000000 0.000000 -0.000000 0.000001 -0.000001 0.000000 0.000000 0.000000 0.000000 
1.775340 127.117294 3.039686 -14.436599 -6.953995 -1.377546 -0.000001 0.000000 -0.000000 -7.965961 -4.808161 12.215034 35.736947 10.912347 -4.321974 35.773925 0.408769 -8.083993 -0.000003 0.000000 -0.000000 0.000001 0.000000 0.000000 -75.147715 -1.112790 -2.618545 88.964170 -3.633952 4.793644 6.605023 -0.032321 6.908466 0.000000 0.000001 -0.000001 0.000000 0.000001 -0.000000 33.681350 -7.805016 2.261496 -8.800029 -1.509051 0.708421 -8.765796 -1.532189 0.987531 6.091216 1.134273 -1.874966 6.091216 1.134274 -1.874968 0.000000 -0.000000 -0.000000 6.091277 1.134277 -1.874968 6.091223 1.134262 -1.874965 -0.000001 0.000000 -0.000000 0.000000 -0.000000 0.000000 -3.043115 12.273508 16.316661 -26.433532 21.467942 -62.023083 0.000021 -58.315971 0.000026 31.298225 16.745343 36.685994 3.439365 9.227305 0.859236 1.208006 -0.209799 -1.050969 0.000001 -0.000001 -0.000001 1.869954 4.880831 -33.918733 0.000008 0.000005 -0.000023 -0.000003 0.000001 -0.000000 1.522163 4.620318 -27.253379 0.027850 0.619908 -5.143873 -0.000000 0.000002 0.000001 1.857848 5.293901 -26.944946 0.027065 0.611088 -5.070567 0.000000 0.000001 -0.000000 5.391158 10.311324 -32.743630 -0.018121 -4.056685 -0.491025 0.000002 0.000002 -0.000002 -0.000001 -0.000001 0.000001 -0.000001 -0.000001 0.000001 -0.000002 -0.000001 0.000001 0.000001 -0.000003 0.000001 0.000000 -0.000004 0.000000 0.000001 -0.000003 0.000001 -0.000001 -0.000005 -0.000000 0.085682 -1.046474 -3.194903 -11.440463 -56.141908 43.403424 -0.000094 87.520965 0.000178 20.539272 -25.522160 -31.450094 6.281987 -5.221569 8.654588 3.284061 -4.718737 0.611828 0.000001 0.000003 0.000001 3.000498 -6.943619 30.628470 -0.000010 0.000003 0.000052 -0.000002 -0.000001 -0.000001 1.378798 -6.497782 13.400829 0.126197 -1.321328 10.910128 -0.000002 -0.000002 0.000000 -0.061103 -7.178729 -0.927094 0.370056 -2.242229 18.740707 -0.000001 0.000001 -0.000001 -2.576569 -9.015198 -15.338428 1.149734 -3.834778 33.368517 0.000003 -0.000000 -0.000000 -0.000000 -0.000001 -0.000001 -0.000002 -0.000001 -0.000001 -0.000000 -0.000001 -0.000001 0.000000 0.000001 0.000002 0.000000 0.000001 0.000000 0.000000 0.000001 0.000002 0.000001 0.000001 0.000002 0.000000 0.000001 0.000000 0.000000 0.000001 0.000000 0.000000 0.000001 0.000000 0.000000 0.000001 0.000000 0.000000 0.000001 0.000000 0.000000 0.000001 0.000000 0.000000 0.000001 0.000000 -0.000001 0.000001 -0.000000 -0.000001 0.000000 -0.000000 
1.933618 126.897018 2.923824 -14.375709 -6.850436 -1.542012 -0.000000 0.000000 0.000000 -9.773769 -5.043195 12.712241 40.681344 10.775895 -4.415444 36.750372 -1.110244 -7.419026 0.000002 0.000000 0.000000 0.000000 -0.000001 0.000000 -73.518688 -0.967942 -2.225719 84.580364 -3.959762 5.408212 5.587251 -0.128445 7.520591 0.000000 0.000001 -0.000000 -0.000000 -0.000000 -0.000001 33.652393 -7.793289 2.480627 -8.869466 -1.502885 0.632699 -8.836055 -1.534383 0.915933 6.130731 1.143038 -1.838791 6.130730 1.143047 -1.838791 -0.000001 0.000001 -0.000000 6.130732 1.143036 -1.838791 6.130722 1.143050 -1.838793 0.000000 0.000001 -0.000000 -0.000001 0.000001 -0.000001 -3.361241 13.695577 16.214961 -24.837209 20.896045 -65.194886 -0.000040 -56.265008 -0.000037 31.099234 16.143418 37.744858 3.501555 9.140205 0.686375 1.208015 -0.209808 -1.050962 0.000001 -0.000001 -0.000001 1.810244 4.789676 -34.003909 0.000005 0.000001 -0.000026 -0.000001 0.000005 0.000002 1.468210 4.511013 -27.351242 0.028022 0.621887 -5.160356 -0.000002 0.000001 -0.000003 1.787569 5.146052 -27.076745 0.027298 0.613810 -5.093097 -0.000001 0.000003 0.000000 5.277528 10.094855 -32.927693 -0.018123 -4.056684 -0.491026 0.000001 0.000002 0.000003 -0.000000 -0.000001 -0.000001 -0.000000 -0.000001 -0.000001 -0.000001 -0.000001 -0.000001 -0.000000 -0.000003 -0.000002 -0.000001 -0.000003 -0.000003 -0.000000 -0.000003 -0.000002 -0.000001 -0.000005 -0.000001 0.097549 -0.856668 -3.548180 -15.431875 -56.806731 37.531104 -0.010023 90.191541 0.009897 18.932408 -26.582261 -30.813067 4.491783 -1.825893 9.978576 5.577658 -11.369908 -0.706771 0.000002 -0.000003 -0.000003 3.181823 -7.064445 31.952188 -0.000008 -0.000005 0.000060 -0.000004 -0.000003 -0.000001 1.417107 -6.506712 13.806486 0.133655 -1.359485 11.229308 -0.000003 0.000001 0.000000 -0.112731 -7.017975 -1.348851 0.388596 -2.296100 19.208809 -0.000000 0.000001 -0.000000 -2.726210 -8.588719 -16.660809 1.215429 -3.932490 34.338557 -0.000001 0.000003 -0.000001 -0.000001 0.000000 0.000000 -0.000001 -0.000000 -0.000000 -0.000001 -0.000000 0.000000 -0.000000 -0.000002 -0.000002 -0.000000 -0.000001 -0.000002 -0.000000 -0.000002 -0.000002 -0.000000 -0.000001 -0.000001 0.000000 -0.000003 0.000000 0.000000 -0.000003 0.000000 0.000000 -0.000003 0.000000 0.000000 -0.000003 0.000000 0.000000 -0.000003 0.000000 0.000000 -0.000003 0.000000 0.000000 -0.000003 0.000000 0.000002 -0.000000 0.000000 -0.000000 0.000000 0.000000 
2.091164 126.676926 2.853472 -14.262271 -6.691147 -1.694577 0.000001 0.000000 0.000000 -11.947609 -5.341227 13.121272 45.615982 9.807950 -4.448763 37.567403 -1.954140 -7.502562 0.000001 -0.000000 -0.000000 0.000000 0.000000 -0.000000 -71.006906 -0.682689 -1.886540 79.536166 -4.100674 5.887042 4.385983 -0.273269 8.666848 -0.000000 0.000000 0.000000 0.000000 0.000001 -0.000002 33.324619 -7.670362 2.671715 -8.726660 -1.502216 0.579317 -8.695866 -1.530167 0.852682 6.157524 1.139156 -1.801014 6.157527 1.139157 -1.801014 0.000000 -0.000002 -0.000000 6.157598 1.139150 -1.801015 6.157442 1.139159 -1.801011 -0.000001 -0.000000 0.000000 0.000000 -0.000002 -0.000000 -3.617007 14.927500 16.030732 -23.091246 20.504421 -68.093243 0.000018 -54.263094 0.000010 30.797822 15.582522 38.960396 3.405449 8.925208 0.687869 1.207798 -0.209695 -1.051068 0.000002 -0.000000 -0.000003 1.612665 4.495963 -34.113499 0.000009 0.000005 -0.000023 -0.000000 -0.000000 0.000000 1.323203 4.228610 -27.451456 0.028174 0.623578 -5.174536 -0.000004 0.000000 -0.000000 1.627750 4.829059 -27.185654 0.027465 0.615710 -5.109060 -0.000002 0.000003 -0.000001 5.027041 9.690468 -33.046412 -0.018124 -4.056687 -0.491024 0.000002 -0.000002 -0.000001 0.000002 0.000001 0.000003 0.000002 0.000001 0.000003 0.000001 0.000002 0.000003 0.000002 0.000000 -0.000001 0.000002 -0.000001 -0.000001 0.000002 0.000000 -0.000001 0.000000 -0.000002 0.000001 0.108980 -0.631197 -4.003747 -20.265069 -56.921209 31.469356 -0.000810 92.434241 0.000837 17.752978 -27.393010 -29.824141 3.142384 0.584196 11.168643 7.360307 -16.838923 -1.680100 -0.000000 -0.000004 0.000001 3.406689 -7.249766 33.204558 -0.000013 -0.000021 0.000095 -0.000002 -0.000001 -0.000000 1.511278 -6.715710 14.246940 0.137694 -1.379627 11.397981 -0.000000 -0.000000 -0.000001 -0.150066 -7.244050 -1.627575 0.394651 -2.313400 19.359505 -0.000000 0.000001 -0.000000 -2.995896 -8.801773 -17.719379 1.239101 -3.966829 34.682089 0.000001 -0.000000 0.000002 0.000000 -0.000000 0.000000 0.000001 -0.000001 0.000001 0.000000 -0.000000 0.000000 0.000001 0.000000 -0.000003 0.000001 0.000001 -0.000005 0.000001 0.000000 -0.000003 0.000001 0.000001 -0.000003 0.000000 0.000000 0.000000 0.000000 0.000000 0.000000 0.000000 0.000000 0.000000 0.000000 0.000000 0.000000 0.000000 0.000000 0.000000 0.000000 0.000000 0.000000 0.000000 0.000000 0.000000 0.000000 0.000001 0.000000 0.000001 0.000000 0.000000 
